# xmcd
#
# Track frame offsets:
#	150
#	16977
#	32288
#	53050
#	73053
#	87611
#	104032
#	120398
#	143554
#	166684
#
# Disc length: 2480 seconds
#
# Revision: 1
# Processed by: cddbd v1.5.2PL0 Copyright (c) Steve Scherf et al.
# Submitted via: audiograbber 1.83.01
#
DISCID=7b09ae0a
DTITLE=Will Hoge - Draw The Curtains
DYEAR=2007
DGENRE=Country
TTITLE0=When I Can Afford To Lose
TTITLE1=These Were The Days
TTITLE2=Dirty Little War
TTITLE3=Silver Or Gold
TTITLE4=Sex, Lies And Money
TTITLE5=I' M Sorry Now
TTITLE6=Midnight Parade
TTITLE7=Draw The Curtains
TTITLE8=Washed By The Water
TTITLE9=The Highway's Home
EXTD=
EXTT0=
EXTT1=
EXTT2=
EXTT3=
EXTT4=
EXTT5=
EXTT6=
EXTT7=
EXTT8=
EXTT9=
PLAYORDER=
